<svg xmlns="http://www.w3.org/2000/svg" xmlns:xlink="http://www.w3.org/1999/xlink" width="757" height="544" viewBox="0 0 757 544"><defs><clipPath id="a"><path d="M45.462-745.831c-8.913,0-20.382-4.842-20.5-4.89a2.477,2.477,0,0,0-1.945,0c-.114.048-11.585,4.89-20.5,4.89A2.557,2.557,0,0,0,0-743.247v20.364c0,13.3,9.9,24.858,23.527,27.485a2.574,2.574,0,0,0,.934,0c13.631-2.627,23.527-14.185,23.527-27.487v-20.362A2.557,2.557,0,0,0,45.462-745.831Z" transform="translate(0 750.919)" fill="#07a7ff" clip-rule="evenodd"/></clipPath><clipPath id="b"><path d="M0-695.356H48.022V-751H0Z" transform="translate(0 751)" fill="#07a7ff"/></clipPath><clipPath id="c"><path d="M36.76-746.8c-7.207,0-16.481-3.915-16.573-3.953a2,2,0,0,0-1.572,0c-.092.038-9.368,3.953-16.573,3.953A2.068,2.068,0,0,0,0-744.716v16.466c0,10.755,8,20.1,19.023,22.224a2.074,2.074,0,0,0,.756,0C30.8-708.149,38.8-717.495,38.8-728.251v-16.465A2.068,2.068,0,0,0,36.76-746.8Z" transform="translate(0 750.919)" fill="#fff" clip-rule="evenodd"/></clipPath><clipPath id="d"><path d="M0-706.007H38.83V-751H0Z" transform="translate(0 751)" fill="#fff"/></clipPath><clipPath id="e"><path d="M25.664-748.081c-5.031,0-11.506-2.7-11.57-2.728a1.415,1.415,0,0,0-1.1,0c-.064.027-6.54,2.728-11.57,2.728A1.435,1.435,0,0,0,0-746.64v11.36c0,7.419,5.586,13.866,13.281,15.332a1.473,1.473,0,0,0,.528,0c7.7-1.466,13.281-7.912,13.281-15.333V-746.64A1.435,1.435,0,0,0,25.664-748.081Z" transform="translate(0 750.919)" fill="#07a7ff" clip-rule="evenodd"/></clipPath><clipPath id="f"><path d="M0-719.96H27.109V-751H0Z" transform="translate(0 751)" fill="#07a7ff"/></clipPath></defs><g transform="translate(-136 -1094)"><g transform="translate(330 1094)" fill="#b9e8ff" stroke="#09b0ff" stroke-width="4"><rect width="369" height="444" rx="15" stroke="none"/><rect x="2" y="2" width="365" height="440" rx="13" fill="none"/></g><g transform="translate(355 1119)" fill="#fff" stroke="#09b0ff" stroke-width="1" stroke-dasharray="5"><rect width="319" height="396" rx="10" stroke="none"/><rect x="0.5" y="0.5" width="318" height="395" rx="9.5" fill="none"/></g><g transform="translate(382 1147)" fill="#f2fbff" stroke="#09b0ff" stroke-width="3"><rect width="268" height="253" rx="10" stroke="none"/><rect x="1.5" y="1.5" width="265" height="250" rx="8.5" fill="none"/></g><text transform="translate(455 1380)" fill="#09b0ff" font-size="25" font-family="Poppins-Bold, Poppins" font-weight="700" opacity="0.996"><tspan x="-34.662" y="0">DATA</tspan></text><text transform="translate(578 1380)" fill="#09b0ff" font-size="25" font-family="Poppins-Bold, Poppins" font-weight="700" opacity="0.996"><tspan x="-35.2" y="0">CODE</tspan></text><g transform="translate(403.613 1242)"><g transform="translate(0.387)" fill="#b9e8ff" stroke="#09b0ff" stroke-width="2"><rect width="101" height="104" rx="10" stroke="none"/><rect x="1" y="1" width="99" height="102" rx="9" fill="none"/></g><g transform="translate(9.387 9)" fill="#fff" stroke="#09b0ff" stroke-width="1" stroke-dasharray="5"><rect width="84" height="87" rx="5" stroke="none"/><rect x="0.5" y="0.5" width="83" height="86" rx="4.5" fill="none"/></g><text transform="translate(26.387 40)" fill="#09b0ff" font-size="16" font-family="Poppins-LightItalic, Poppins" font-weight="300" font-style="italic"><tspan x="0" y="0">100100</tspan></text><text transform="translate(26.387 57)" fill="#09b0ff" font-size="16" font-family="Poppins-LightItalic, Poppins" font-weight="300" font-style="italic" opacity="0.5"><tspan x="0" y="0">100100</tspan></text><text transform="translate(26.387 76)" fill="#09b0ff" font-size="16" font-family="Poppins-LightItalic, Poppins" font-weight="300" font-style="italic" opacity="0.2"><tspan x="0" y="0">100100</tspan></text></g><g transform="translate(527.742 1242)"><g transform="translate(0.258)" fill="#b9e8ff" stroke="#09b0ff" stroke-width="2"><rect width="100" height="104" rx="10" stroke="none"/><rect x="1" y="1" width="98" height="102" rx="9" fill="none"/></g><g transform="translate(8.258 9)" fill="#fff" stroke="#09b0ff" stroke-width="1" stroke-dasharray="5"><rect width="84" height="87" rx="5" stroke="none"/><rect x="0.5" y="0.5" width="83" height="86" rx="4.5" fill="none"/></g><text transform="translate(19.258 41)" fill="#09b0ff" font-size="13" font-family="Monaco"><tspan x="0" y="0">fn x() {</tspan><tspan x="0" y="17" xml:space="preserve"> //code</tspan><tspan x="0" y="34">}</tspan></text></g><text transform="translate(516 1191)" fill="#09b0ff" font-size="25" font-family="Poppins-Bold, Poppins" font-weight="700"><tspan x="-72.1" y="0">PROTECTED</tspan><tspan x="-82.825" y="30">APPLICATION</tspan></text><g transform="translate(2191.272 420.728) rotate(90)"><path d="M925.5,583.5h59.882" transform="translate(179 1086)" fill="none" stroke="#09b0ff" stroke-width="2" stroke-dasharray="5"/><g transform="translate(1097 1662)" fill="#fff" stroke="#09b0ff" stroke-width="3"><circle cx="7.5" cy="7.5" r="7.5" stroke="none"/><circle cx="7.5" cy="7.5" r="6" fill="none"/></g></g><g transform="translate(-19 -15)"><text transform="translate(565 1619)" fill="#09b0ff" font-size="25" font-family="Poppins-Bold, Poppins" font-weight="700"><tspan x="-44.537" y="0">Secure</tspan><tspan x="-50.563" y="25">Enclave</tspan></text><g transform="translate(453.963 1593.454)"><g transform="translate(0 0)"><g transform="translate(0 0)" clip-path="url(#a)"><g transform="translate(0 -0.006)" clip-path="url(#b)"><path d="M-5-755.919H43.728v56.3H-5Z" transform="translate(4.63 755.555)" fill="#07a7ff"/></g></g></g><g transform="translate(4.593 5.318)"><g transform="translate(0 0)" clip-path="url(#c)"><g transform="translate(0 -0.005)" clip-path="url(#d)"><path d="M-5-755.92H34.4v45.527H-5Z" transform="translate(4.701 755.625)" fill="#fff"/></g></g></g><g transform="translate(10.449 12.284)"><g transform="translate(0 0)" clip-path="url(#e)"><g transform="translate(0 -0.003)" clip-path="url(#f)"><path d="M-5-755.919H22.508v31.408H-5Z" transform="translate(4.791 755.716)" fill="#07a7ff"/></g></g></g><path d="M0,4.009s14.253-9.02,29.561,0" transform="translate(8.777 29.187) rotate(-20)" fill="none" stroke="#fff" stroke-width="5"/></g></g><g transform="translate(382 1420)" fill="#f2fbff" stroke="#09b0ff" stroke-width="3"><rect width="268" height="71" rx="10" stroke="none"/><rect x="1.5" y="1.5" width="265" height="68" rx="8.5" fill="none"/></g><text transform="translate(520 1465)" fill="#09b0ff" font-size="25" font-family="Poppins-Bold, Poppins" font-weight="700"><tspan x="-88.425" y="0">Occlum LibOS</tspan></text><g transform="translate(0 38)"><g transform="translate(-170.508 602.344)"><path d="M83.575,21.7A11.054,11.054,0,0,0,94.761,10.794a11.191,11.191,0,0,0-22.372.112A10.962,10.962,0,0,0,83.575,21.7Zm19.575,12.472v-.336a11.107,11.107,0,0,0-11.3-10.85H89.168l-5.593,17.73L77.982,23.043H75.354A11.13,11.13,0,0,0,64,33.949V44.688H92.58v.056h10.571Z" transform="translate(291.189 618.156)" fill="#07a7ff"/><text transform="translate(374.508 687.656)" fill="#09b0ff" font-size="24" font-family="Poppins-Bold, Poppins" font-weight="700"><tspan x="-67.692" y="0">Authorized</tspan><tspan x="-27.672" y="24">User</tspan></text></g><path d="M925.5,583.5h50.44" transform="translate(-649.568 698)" fill="none" stroke="#09b0ff" stroke-width="2" stroke-dasharray="5"/></g><g transform="translate(457 807)"><path d="M129.194,88.295l-.182-.765-.182-.911-.911.146a104.978,104.978,0,0,1-16.726,1.786,113.192,113.192,0,0,1-16.835-2l-.911-.146-.4,1.676a39.061,39.061,0,0,0-1.057,9.037c-.036,7.324,1.786,14.284,5.211,19.568a20.723,20.723,0,0,0,5.976,6.195,13.789,13.789,0,0,0,7.725,2.405,14.31,14.31,0,0,0,4.3-.656,15.821,15.821,0,0,0,3.462-1.64,20.208,20.208,0,0,0,6.049-6.122c3.5-5.211,5.43-12.135,5.466-19.5A41.949,41.949,0,0,0,129.194,88.295ZM101.5,106.333a5.453,5.453,0,0,1-2.405-7.361l9.766,4.956A5.467,5.467,0,0,1,101.5,106.333Zm8.527,11.041a7.769,7.769,0,0,1-6.632-6.632,9.735,9.735,0,0,0,7.725,3.79,9.636,9.636,0,0,0,7.616-3.68l.073-.109A7.775,7.775,0,0,1,110.027,117.374Zm10.385-11.041a5.28,5.28,0,0,1-2.478.583,5.456,5.456,0,0,1-4.883-2.988l9.766-4.956A5.456,5.456,0,0,1,120.412,106.333Z" transform="translate(268.7 368.157)" fill="#07a7ff"/><text transform="translate(381 518)" fill="#09b0ff" font-size="24" font-family="Poppins-Bold, Poppins" font-weight="700"><tspan x="-54.072" y="0">Attacker</tspan></text></g><path d="M535,781.7V698.751" transform="translate(1480.817 781.5) rotate(90)" fill="none" stroke="#07a7ff" stroke-width="2" stroke-dasharray="5"/><path d="M103.331,77.837l-3.853-3.853L88.657,84.8l-10.72-10.72-3.853,3.853L84.8,88.657,73.984,99.478l3.853,3.853L88.657,92.51l10.72,10.72,3.853-3.853L92.51,88.657Z" transform="translate(653.67 1227.67)" fill="#07a7ff"/></g></svg>