<svg xmlns="http://www.w3.org/2000/svg" width="50" height="57" viewBox="0 0 50 57"><g transform="translate(-1013 -2558)"><g transform="translate(1013 2558)" fill="#fff" stroke="#4f4f4f" stroke-width="4"><rect width="50" height="57" rx="10" stroke="none"/><rect x="2" y="2" width="46" height="53" rx="8" fill="none"/></g><path d="M18.273,0H2.309A2.272,2.272,0,0,0,0,2.309V22.891A2.251,2.251,0,0,0,2.309,25.1H22.891A2.272,2.272,0,0,0,25.2,22.791V4.518C25.1,3.313,19.478,0,18.273,0ZM5.723,4.518H12.55a1.1,1.1,0,0,1,0,2.209H5.723a1.114,1.114,0,0,1-1.1-1.1C4.518,5.12,5.12,4.518,5.723,4.518ZM19.377,20.582H5.723a1.1,1.1,0,1,1,0-2.209H19.377a1.114,1.114,0,0,1,1.1,1.1C20.582,19.98,19.98,20.582,19.377,20.582Zm0-4.618H5.723a1.1,1.1,0,1,1,0-2.209H19.377a1.1,1.1,0,0,1,0,2.209Zm0-4.518H5.723a1.1,1.1,0,0,1,0-2.209H19.377a1.114,1.114,0,0,1,1.1,1.1A1.053,1.053,0,0,1,19.377,11.446Z" transform="translate(1025.434 2574.5)" fill="#4f4f4f"/></g></svg>