<svg xmlns="http://www.w3.org/2000/svg" xmlns:xlink="http://www.w3.org/1999/xlink" width="152.999" height="190.701" viewBox="0 0 152.999 190.701"><defs><linearGradient id="a" x1="-0.129" y1="0.691" x2="0.916" y2="0.078" gradientUnits="objectBoundingBox"><stop offset="0" stop-color="#0074e5" stop-opacity="0"/><stop offset="1" stop-color="#0074e5"/></linearGradient></defs><g transform="translate(-574.395 462.809)"><path d="M273.973,1439.372l-.157.038.013,178.994.158.045c33.393-9.431,75.961-39.68,75.958-94.659,0-19.516.027-38.027.024-61.4C328.924,1455.364,305.759,1446.976,273.973,1439.372Z" transform="translate(377.08 -1890.557)" fill="url(#a)"/><path d="M360.827,1459.444q-4.093-1.413-8.329-2.9c-16.426-5.742-36.418-12.25-60.622-18.232l-1.983-.49-1.982.491c-24.2,5.983-43.917,12.4-60.1,18.058l-.6.21q-4.2,1.47-8.251,2.873l-4.176,1.441a2.065,2.065,0,0,0-1.39,1.951v4.417c0,11.1.009,21,.016,30.445.006,8.63.014,16.887.014,25.354,0,42.99,25.095,67.583,42.2,79.347a2.063,2.063,0,0,0,3.23-1.7l.042-15.21a2.756,2.756,0,0,0-.977-2.111c-13.166-11.154-27.969-30.362-27.971-60.33,0-8.471-.008-16.732-.014-25.367-.005-7.312-.011-14.891-.014-23.09a2.065,2.065,0,0,1,1.384-1.951l1.364-.477.6-.21c15.389-5.381,34.149-11.461,56.628-17.12,22.5,5.661,41.526,11.832,57.152,17.294l1.441.505a2.067,2.067,0,0,1,1.385,1.951c0,8.2-.006,15.777-.011,23.089-.005,8.635-.01,16.9-.01,25.368,0,29.374-14.214,48.412-27.184,59.667a2.754,2.754,0,0,0-.952,2.081v15.374a2.063,2.063,0,0,0,3.245,1.693c17.1-11.985,41.414-36.482,41.411-78.814,0-8.468.005-16.726.01-25.357.006-9.449.013-19.344.011-30.444v-4.418a2.063,2.063,0,0,0-1.39-1.951Z" transform="translate(361 -1890.969)"/><path d="M287.2,1560.643a9.847,9.847,0,0,0-5.176-8.492,2.82,2.82,0,0,1-1.488-2.412v-.02c0-2.765-.8-100.588-1.072-116.4a3.219,3.219,0,0,0-3.254-3.126h0a3.219,3.219,0,0,0-3.254,3.127c-.267,15.813-1.064,113.636-1.064,116.4v.02a2.659,2.659,0,0,1-1.446,2.3,9.877,9.877,0,0,0-5.372,8.6,9.752,9.752,0,0,0,4.531,8.094,3.039,3.039,0,0,1,1.41,2.975c-1.24,8.193-2.206,10.218-2.206,11.984a7.006,7.006,0,0,0,.931,3.5,3.122,3.122,0,0,1,.056,3.041,6.177,6.177,0,0,0-.741,2.937v22.456a4.29,4.29,0,0,0,3,4.062c1.345.436,2.745.866,3.536,1.107a2.315,2.315,0,0,0,1.305.006q1.753-.507,3.543-1.109a4.282,4.282,0,0,0,2.941-4.043l0-22.479a6.159,6.159,0,0,0-.741-2.937,3.124,3.124,0,0,1,.056-3.042,7.019,7.019,0,0,0,.929-3.5c0-1.774-.975-3.9-2.223-12.078a3.035,3.035,0,0,1,1.376-2.955A9.736,9.736,0,0,0,287.2,1560.643Z" transform="translate(374.754 -1893)"/></g></svg>