<svg xmlns="http://www.w3.org/2000/svg" xmlns:xlink="http://www.w3.org/1999/xlink" width="352" height="103" viewBox="0 0 352 103"><defs><linearGradient id="a" x1="-0.129" y1="0.691" x2="0.916" y2="0.078" gradientUnits="objectBoundingBox"><stop offset="0" stop-color="#0074e5" stop-opacity="0"/><stop offset="1" stop-color="#0074e5"/></linearGradient><clipPath id="c"><rect width="352" height="103"/></clipPath></defs><g id="b" clip-path="url(#c)"><rect width="352" height="103" fill="#fff"/><path d="M273.9,1439.372l-.084.021.007,96.244.085.024c17.955-5.071,40.844-21.336,40.842-50.9,0-10.494.014-20.447.013-33.014C303.448,1447.971,290.992,1443.461,273.9,1439.372Z" transform="translate(-232.287 -1432.931)" fill="url(#a)"/><path d="M292.669,1449.448q-2.2-.76-4.478-1.559c-8.832-3.088-19.582-6.587-32.6-9.8l-1.066-.263-1.065.264c-13.013,3.217-23.614,6.666-32.315,9.709l-.323.113q-2.26.79-4.437,1.545l-2.245.775a1.11,1.11,0,0,0-.747,1.049v2.375c0,5.969,0,11.29.009,16.37,0,4.64.007,9.081.007,13.633,0,23.116,13.493,36.339,22.69,42.665a1.109,1.109,0,0,0,1.737-.913l.022-8.178a1.481,1.481,0,0,0-.526-1.135,41.308,41.308,0,0,1-15.04-32.439c0-4.554,0-9-.007-13.64,0-3.932-.006-8.007-.008-12.415a1.111,1.111,0,0,1,.744-1.049l.733-.257.323-.113c8.274-2.893,18.362-6.163,30.448-9.205,12.1,3.044,22.329,6.362,30.73,9.3l.775.271a1.112,1.112,0,0,1,.745,1.049c0,4.408,0,8.483-.006,12.415,0,4.643-.005,9.086-.005,13.64a41.252,41.252,0,0,1-14.617,32.083,1.48,1.48,0,0,0-.512,1.119v8.266a1.11,1.11,0,0,0,1.745.91c9.192-6.444,22.268-19.616,22.267-42.378,0-4.553,0-8.993.005-13.634,0-5.081.007-10.4.006-16.37v-2.375a1.109,1.109,0,0,0-.747-1.049Z" transform="translate(-213 -1432.436)"/><path d="M276.975,1500.334a5.3,5.3,0,0,0-2.783-4.566,1.516,1.516,0,0,1-.8-1.3v-.011c0-1.487-.432-54.086-.577-62.589a1.731,1.731,0,0,0-1.75-1.681h0a1.731,1.731,0,0,0-1.75,1.682c-.144,8.5-.572,61.1-.572,62.588v.011a1.43,1.43,0,0,1-.777,1.238,5.311,5.311,0,0,0-2.889,4.625,5.244,5.244,0,0,0,2.437,4.352,1.634,1.634,0,0,1,.758,1.6c-.667,4.406-1.186,5.494-1.186,6.444a3.767,3.767,0,0,0,.5,1.88,1.679,1.679,0,0,1,.03,1.635,3.321,3.321,0,0,0-.4,1.579V1529.9a2.308,2.308,0,0,0,1.614,2.184c.723.234,1.476.465,1.9.595a1.242,1.242,0,0,0,.7,0q.943-.273,1.9-.6a2.3,2.3,0,0,0,1.581-2.174v-12.087a3.311,3.311,0,0,0-.4-1.579,1.68,1.68,0,0,1,.03-1.636,3.774,3.774,0,0,0,.5-1.88c0-.954-.524-2.094-1.2-6.494a1.631,1.631,0,0,1,.74-1.589A5.235,5.235,0,0,0,276.975,1500.334Z" transform="translate(-229.498 -1430)"/><g transform="translate(120.41 33.827)"><path d="M523.2,1502.262l.028,31.569h30.6l-.025-31.594-10.189.025.028,23.333H533.384v-23.354Z" transform="translate(-374.336 -1485.393)"/><path d="M606.016,1533.807l-.028-31.569H561.53l.025,31.594,10.189-.025-.028-23.333h6.916l.018,23.357,9.609-.023h.662l-.021-23.333h6.927v23.354Z" transform="translate(-374.323 -1485.393)"/><path d="M374.389,1533.837l43.336-.022L417.7,1485.4l-43.314.025Zm10.265-40.092H407.44v31.749H384.654Z" transform="translate(-374.389 -1485.399)"/><path d="M464.607,1502.319l.028,31.512h31.179l-.022-8.25-21.015.028v-15.069h21.037l-.022-8.253Z" transform="translate(-374.357 -1485.393)"/><path d="M425.811,1502.319l.028,31.512h31.179l-.022-8.25-21.015.028v-15.069h21.037l-.022-8.253Z" transform="translate(-374.371 -1485.393)"/><rect width="9.845" height="42.214" transform="translate(130.326 6.224)"/></g></g></svg>