<svg xmlns="http://www.w3.org/2000/svg" width="59" height="59" viewBox="0 0 59 59"><g transform="translate(-448 -2945)"><g transform="translate(448 2945)" fill="#fff" stroke="#4f4f4f" stroke-width="4"><rect width="59" height="59" rx="8" stroke="none"/><rect x="2" y="2" width="55" height="55" rx="6" fill="none"/></g><path d="M74.469,50.147a.984.984,0,0,1-.972.972H70.1a8.854,8.854,0,0,1-1.017,4.4l3.157,3.173a.955.955,0,0,1,0,1.367.955.955,0,0,1-1.367,0l-3.006-2.991a2.886,2.886,0,0,1-.228.2q-.152.122-.638.433a9.536,9.536,0,0,1-.987.554,7.008,7.008,0,0,1-1.245.44,5.721,5.721,0,0,1-1.472.2V45.29H61.351v13.6a5.948,5.948,0,0,1-1.541-.2,6.222,6.222,0,0,1-1.321-.5q-.554-.3-1-.592a5.377,5.377,0,0,1-.661-.493L56.6,56.89,53.82,60.032a.97.97,0,0,1-.729.319.985.985,0,0,1-.653-.243.974.974,0,0,1-.311-.676.964.964,0,0,1,.236-.706l3.067-3.447a9.079,9.079,0,0,1-.881-4.16h-3.4a.972.972,0,0,1,0-1.943h3.4V44.713l-2.626-2.626a.967.967,0,1,1,1.367-1.367l2.626,2.626H68.728l2.626-2.626a.967.967,0,1,1,1.367,1.367L70.1,44.713v4.463h3.4a.984.984,0,0,1,.972.972ZM67.182,41.4H57.465a4.859,4.859,0,1,1,9.717,0Z" transform="translate(414.776 2918.991)" fill="#4f4f4f"/><g transform="translate(472.437 2983.173)"><path d="M456.944,2954.817l9.589,9.589" transform="translate(-456.944 -2954.817)" fill="none" stroke="#4f4f4f" stroke-linecap="round" stroke-width="3"/><path d="M0,0,9.589,9.589" transform="translate(9.589) rotate(90)" fill="none" stroke="#4f4f4f" stroke-linecap="round" stroke-width="3"/></g></g></svg>