<svg xmlns="http://www.w3.org/2000/svg" width="44.151" height="45.49" viewBox="0 0 44.151 45.49"><path d="M42.107,4.79a2,2,0,0,0,.152-.763V2.69a2.007,2.007,0,0,0-4.014,0V4.027a2,2,0,0,0,.154.763A22.067,22.067,0,0,0,18.176,26.771c0,.5.03,1,.068,1.49a7.984,7.984,0,0,1,14.073,1.668,8.674,8.674,0,0,1,15.865,0,7.984,7.984,0,0,1,14.073-1.668c.04-.493.07-.987.07-1.49A22.062,22.062,0,0,0,42.107,4.79ZM38.245,39.482a2.677,2.677,0,1,1-5.353,0V38.145a2.072,2.072,0,0,0-2.007-1.467,2.206,2.206,0,0,0-2.005,1.467v1.337a6.69,6.69,0,1,0,13.379,0v-10.7H38.245Z" transform="translate(-18.176 -0.683)" fill="#4f4f4f"/></svg>